ffmpeg started on 2025-06-07 at 18:23:34
Report written to "D:\Convert\FFMetrics\reports\psnr_report-6.txt"
Log level: 32
Command line:
ffmpeg -hide_banner -nostdin -i "G:\\\xc0\xed\xe8\xec\xe5\\\xce\xed\xe3\xee\xe8\xed\xe3\xe8\\!_36_\xce\xf1\xe5\xed\xfc_2024\\DreamCast\\\xdf \xf1\xf2\xe0\xed\xf3 \xe7\xeb\xee\xe4\xe5\xe9\xea\xee\xe9, \xea\xee\xf2\xee\xf0\xe0\xff \xe2\xee\xe9\xe4\xb8\xf2 \xe2 \xe8\xf1\xf2\xee\xf0\xe8\xfe\\[DC] Rekishi ni Nokoru Akujo ni Naruzo - 09_Telegram_HEVC.mkv" -i "G:\\\xc0\xed\xe8\xec\xe5\\\xce\xed\xe3\xee\xe8\xed\xe3\xe8\\!_36_\xce\xf1\xe5\xed\xfc_2024\\DreamCast\\\xdf \xf1\xf2\xe0\xed\xf3 \xe7\xeb\xee\xe4\xe5\xe9\xea\xee\xe9, \xea\xee\xf2\xee\xf0\xe0\xff \xe2\xee\xe9\xe4\xb8\xf2 \xe2 \xe8\xf1\xf2\xee\xf0\xe8\xfe\\[DC] Rekishi ni Nokoru Akujo ni Naruzo - 09_Telegram.mp4" -lavfi "[0:v]settb=AVTB,setpts=PTS-STARTPTS,format=pix_fmts=yuv420p10,fps=24000/1001,scale=1920:1080:flags=bicubic[main];[1:v]settb=AVTB,setpts=PTS-STARTPTS,format=pix_fmts=yuv420p,fps=24000/1001,scale=1920:1080:flags=bicubic[ref];[main][ref]psnr=eof_action=endall:stats_file='D\\:/Convert/FFMetrics/logs/psnr_logfile-6.txt'" -f null -
Input #0, matroska,webm, from 'G:\Аниме\Онгоинги\!_36_Осень_2024\DreamCast\Я стану злодейкой, которая войдёт в историю\[DC] Rekishi ni Nokoru Akujo ni Naruzo - 09_Telegram_HEVC.mkv':
  Metadata:
    COMPATIBLE_BRANDS: isomiso2avc1mp41
    MAJOR_BRAND     : isom
    MINOR_VERSION   : 512
    ENCODER         : Lavf61.7.100
  Duration: 00:23:46.69, start: -0.021000, bitrate: 810 kb/s
  Stream #0:0: Video: hevc (Main 10), yuv420p10le(tv, bt709, progressive), 1920x1080 [SAR 1:1 DAR 16:9], 23.98 fps, 23.98 tbr, 1k tbn (default)
      Metadata:
        HANDLER_NAME    : VideoHandler
        VENDOR_ID       : [0][0][0][0]
        ENCODER         : Lavc61.19.100 libx265
        BPS             : 613045
        DURATION        : 00:23:46.591708333
        NUMBER_OF_FRAMES: 34204
        NUMBER_OF_BYTES : 109320679
        _STATISTICS_WRITING_APP: mkvpropedit v66.0.0 ('Josie') 64-bit
        _STATISTICS_WRITING_DATE_UTC: 2025-06-06 11:01:58
        _STATISTICS_TAGS: BPS DURATION NUMBER_OF_FRAMES NUMBER_OF_BYTES
  Stream #0:1: Audio: aac (LC), 48000 Hz, stereo, fltp (default)
      Metadata:
        HANDLER_NAME    : SoundHandler
        VENDOR_ID       : [0][0][0][0]
        ENCODER         : Lavc61.19.100 aac
        BPS             : 193120
        DURATION        : 00:23:46.688000000
        NUMBER_OF_FRAMES: 66877
        NUMBER_OF_BYTES : 34440296
        _STATISTICS_WRITING_APP: mkvpropedit v66.0.0 ('Josie') 64-bit
        _STATISTICS_WRITING_DATE_UTC: 2025-06-06 11:01:58
        _STATISTICS_TAGS: BPS DURATION NUMBER_OF_FRAMES NUMBER_OF_BYTES
Input #1, mov,mp4,m4a,3gp,3g2,mj2, from 'G:\Аниме\Онгоинги\!_36_Осень_2024\DreamCast\Я стану злодейкой, которая войдёт в историю\[DC] Rekishi ni Nokoru Akujo ni Naruzo - 09_Telegram.mp4':
  Metadata:
    major_brand     : isom
    minor_version   : 512
    compatible_brands: isomiso2avc1mp41
    encoder         : Lavf61.1.100
  Duration: 00:23:46.66, start: 0.000000, bitrate: 3165 kb/s
  Stream #1:0[0x1](und): Video: h264 (High) (avc1 / 0x31637661), yuv420p(tv, bt709, progressive), 1920x1080 [SAR 1:1 DAR 16:9], 3017 kb/s, 23.98 fps, 23.98 tbr, 24k tbn (default)
      Metadata:
        handler_name    : VideoHandler
        vendor_id       : [0][0][0][0]
        encoder         : Lavc61.3.100 h264_qsv
  Stream #1:1[0x2](und): Audio: aac (HE-AACv2) (mp4a / 0x6134706D), 48000 Hz, stereo, fltp, 144 kb/s (default)
      Metadata:
        handler_name    : SoundHandler
        vendor_id       : [0][0][0][0]
Stream mapping:
  Stream #0:0 (hevc) -> settb:default
  Stream #1:0 (h264) -> settb:default
  psnr:default -> Stream #0:0 (wrapped_avframe)
  Stream #0:1 -> #0:1 (aac (native) -> pcm_s16le (native))
Output #0, null, to 'pipe:':
  Metadata:
    COMPATIBLE_BRANDS: isomiso2avc1mp41
    MAJOR_BRAND     : isom
    MINOR_VERSION   : 512
    encoder         : Lavf61.7.100
  Stream #0:0: Video: wrapped_avframe, yuv420p10le(tv, bt709, progressive), 1920x1080 [SAR 1:1 DAR 16:9], q=2-31, 200 kb/s, 23.98 fps, 23.98 tbn
      Metadata:
        encoder         : Lavc61.19.100 wrapped_avframe
  Stream #0:1: Audio: pcm_s16le, 48000 Hz, stereo, s16, 1536 kb/s (default)
      Metadata:
        HANDLER_NAME    : SoundHandler
        VENDOR_ID       : [0][0][0][0]
        _STATISTICS_TAGS: BPS DURATION NUMBER_OF_FRAMES NUMBER_OF_BYTES
        BPS             : 193120
        DURATION        : 00:23:46.688000000
        NUMBER_OF_FRAMES: 66877
        NUMBER_OF_BYTES : 34440296
        _STATISTICS_WRITING_APP: mkvpropedit v66.0.0 ('Josie') 64-bit
        _STATISTICS_WRITING_DATE_UTC: 2025-06-06 11:01:58
        encoder         : Lavc61.19.100 pcm_s16le
frame=  172 fps=0.0 q=-0.0 size=N/A time=00:00:07.17 bitrate=N/A speed=13.7x    frame=  429 fps=416 q=-0.0 size=N/A time=00:00:17.89 bitrate=N/A speed=17.4x    frame=  698 fps=448 q=-0.0 size=N/A time=00:00:29.11 bitrate=N/A speed=18.7x    frame=  948 fps=458 q=-0.0 size=N/A time=00:00:39.53 bitrate=N/A speed=19.1x    frame= 1223 fps=474 q=-0.0 size=N/A time=00:00:51.00 bitrate=N/A speed=19.8x    frame= 1494 fps=481 q=-0.0 size=N/A time=00:01:02.31 bitrate=N/A speed=20.1x    frame= 1743 fps=482 q=-0.0 size=N/A time=00:01:12.69 bitrate=N/A speed=20.1x    frame= 2003 fps=485 q=-0.0 size=N/A time=00:01:23.54 bitrate=N/A speed=20.2x    frame= 2233 fps=481 q=-0.0 size=N/A time=00:01:33.13 bitrate=N/A speed=20.1x    frame= 2438 fps=473 q=-0.0 size=N/A time=00:01:41.68 bitrate=N/A speed=19.7x    frame= 2639 fps=465 q=-0.0 size=N/A time=00:01:50.06 bitrate=N/A speed=19.4x    frame= 2858 fps=462 q=-0.0 size=N/A time=00:01:59.20 bitrate=N/A speed=19.3x    frame= 3082 fps=459 q=-0.0 size=N/A time=00:02:08.54 bitrate=N/A speed=19.1x    frame= 3267 fps=452 q=-0.0 size=N/A time=00:02:16.26 bitrate=N/A speed=18.9x    frame= 3480 fps=450 q=-0.0 size=N/A time=00:02:25.14 bitrate=N/A speed=18.8x    frame= 3697 fps=447 q=-0.0 size=N/A time=00:02:34.19 bitrate=N/A speed=18.7x    frame= 3900 fps=445 q=-0.0 size=N/A time=00:02:42.66 bitrate=N/A speed=18.5x    frame= 4086 fps=440 q=-0.0 size=N/A time=00:02:50.42 bitrate=N/A speed=18.4x    frame= 4352 fps=444 q=-0.0 size=N/A time=00:03:01.51 bitrate=N/A speed=18.5x    frame= 4600 fps=446 q=-0.0 size=N/A time=00:03:11.85 bitrate=N/A speed=18.6x    frame= 4852 fps=448 q=-0.0 size=N/A time=00:03:22.36 bitrate=N/A speed=18.7x    frame= 5098 fps=449 q=-0.0 size=N/A time=00:03:32.62 bitrate=N/A speed=18.7x    frame= 5376 fps=453 q=-0.0 size=N/A time=00:03:44.22 bitrate=N/A speed=18.9x    frame= 5650 fps=456 q=-0.0 size=N/A time=00:03:55.65 bitrate=N/A speed=  19x    frame= 5930 fps=460 q=-0.0 size=N/A time=00:04:07.33 bitrate=N/A speed=19.2x    frame= 6179 fps=461 q=-0.0 size=N/A time=00:04:17.71 bitrate=N/A speed=19.2x    frame= 6446 fps=463 q=-0.0 size=N/A time=00:04:28.85 bitrate=N/A speed=19.3x    frame= 6679 fps=462 q=-0.0 size=N/A time=00:04:38.56 bitrate=N/A speed=19.3x    frame= 6949 fps=465 q=-0.0 size=N/A time=00:04:49.83 bitrate=N/A speed=19.4x    frame= 7220 fps=466 q=-0.0 size=N/A time=00:05:01.13 bitrate=N/A speed=19.5x    frame= 7495 fps=469 q=-0.0 size=N/A time=00:05:12.60 bitrate=N/A speed=19.6x    frame= 7766 fps=470 q=-0.0 size=N/A time=00:05:23.90 bitrate=N/A speed=19.6x    frame= 8005 fps=470 q=-0.0 size=N/A time=00:05:33.87 bitrate=N/A speed=19.6x    frame= 8266 fps=471 q=-0.0 size=N/A time=00:05:44.76 bitrate=N/A speed=19.7x    frame= 8541 fps=473 q=-0.0 size=N/A time=00:05:56.23 bitrate=N/A speed=19.7x    frame= 8821 fps=475 q=-0.0 size=N/A time=00:06:07.90 bitrate=N/A speed=19.8x    frame= 9096 fps=477 q=-0.0 size=N/A time=00:06:19.37 bitrate=N/A speed=19.9x    frame= 9364 fps=478 q=-0.0 size=N/A time=00:06:30.55 bitrate=N/A speed=19.9x    frame= 9625 fps=479 q=-0.0 size=N/A time=00:06:41.44 bitrate=N/A speed=  20x    frame= 9885 fps=479 q=-0.0 size=N/A time=00:06:52.28 bitrate=N/A speed=  20x    frame=10141 fps=479 q=-0.0 size=N/A time=00:07:02.96 bitrate=N/A speed=  20x    frame=10404 fps=480 q=-0.0 size=N/A time=00:07:13.93 bitrate=N/A speed=  20x    frame=10617 fps=479 q=-0.0 size=N/A time=00:07:22.81 bitrate=N/A speed=  20x    frame=10869 fps=479 q=-0.0 size=N/A time=00:07:33.32 bitrate=N/A speed=  20x    frame=11156 fps=481 q=-0.0 size=N/A time=00:07:45.29 bitrate=N/A speed=  20x    frame=11409 fps=481 q=-0.0 size=N/A time=00:07:55.85 bitrate=N/A speed=20.1x    frame=11664 fps=481 q=-0.0 size=N/A time=00:08:06.48 bitrate=N/A speed=20.1x    frame=11908 fps=481 q=-0.0 size=N/A time=00:08:16.66 bitrate=N/A speed=20.1x    frame=12193 fps=482 q=-0.0 size=N/A time=00:08:28.54 bitrate=N/A speed=20.1x    frame=12471 fps=484 q=-0.0 size=N/A time=00:08:40.14 bitrate=N/A speed=20.2x    frame=12732 fps=484 q=-0.0 size=N/A time=00:08:51.03 bitrate=N/A speed=20.2x    frame=13027 fps=486 q=-0.0 size=N/A time=00:09:03.33 bitrate=N/A speed=20.3x    frame=13305 fps=487 q=-0.0 size=N/A time=00:09:14.92 bitrate=N/A speed=20.3x    frame=13571 fps=487 q=-0.0 size=N/A time=00:09:26.02 bitrate=N/A speed=20.3x    frame=13826 fps=487 q=-0.0 size=N/A time=00:09:36.65 bitrate=N/A speed=20.3x    frame=14070 fps=487 q=-0.0 size=N/A time=00:09:46.83 bitrate=N/A speed=20.3x    frame=14337 fps=488 q=-0.0 size=N/A time=00:09:57.97 bitrate=N/A speed=20.3x    frame=14550 fps=486 q=-0.0 size=N/A time=00:10:06.85 bitrate=N/A speed=20.3x    frame=14779 fps=486 q=-0.0 size=N/A time=00:10:16.40 bitrate=N/A speed=20.3x    frame=15044 fps=486 q=-0.0 size=N/A time=00:10:27.46 bitrate=N/A speed=20.3x    frame=15309 fps=487 q=-0.0 size=N/A time=00:10:38.51 bitrate=N/A speed=20.3x    frame=15554 fps=486 q=-0.0 size=N/A time=00:10:48.73 bitrate=N/A speed=20.3x    frame=15817 fps=487 q=-0.0 size=N/A time=00:10:59.70 bitrate=N/A speed=20.3x    frame=16085 fps=487 q=-0.0 size=N/A time=00:11:10.87 bitrate=N/A speed=20.3x    frame=16346 fps=488 q=-0.0 size=N/A time=00:11:21.76 bitrate=N/A speed=20.3x    frame=16589 fps=487 q=-0.0 size=N/A time=00:11:31.89 bitrate=N/A speed=20.3x    frame=16871 fps=488 q=-0.0 size=N/A time=00:11:43.66 bitrate=N/A speed=20.4x    frame=17106 fps=488 q=-0.0 size=N/A time=00:11:53.46 bitrate=N/A speed=20.3x    frame=17356 fps=488 q=-0.0 size=N/A time=00:12:03.88 bitrate=N/A speed=20.3x    frame=17621 fps=488 q=-0.0 size=N/A time=00:12:14.94 bitrate=N/A speed=20.4x    frame=17899 fps=489 q=-0.0 size=N/A time=00:12:26.53 bitrate=N/A speed=20.4x    frame=18149 fps=489 q=-0.0 size=N/A time=00:12:36.96 bitrate=N/A speed=20.4x    frame=18425 fps=489 q=-0.0 size=N/A time=00:12:48.47 bitrate=N/A speed=20.4x    frame=18699 fps=490 q=-0.0 size=N/A time=00:12:59.90 bitrate=N/A speed=20.4x    frame=18951 fps=490 q=-0.0 size=N/A time=00:13:10.41 bitrate=N/A speed=20.4x    frame=19177 fps=489 q=-0.0 size=N/A time=00:13:19.84 bitrate=N/A speed=20.4x    frame=19441 fps=490 q=-0.0 size=N/A time=00:13:30.85 bitrate=N/A speed=20.4x    frame=19699 fps=490 q=-0.0 size=N/A time=00:13:41.61 bitrate=N/A speed=20.4x    frame=19955 fps=490 q=-0.0 size=N/A time=00:13:52.28 bitrate=N/A speed=20.4x    frame=20225 fps=490 q=-0.0 size=N/A time=00:14:03.55 bitrate=N/A speed=20.4x    frame=20481 fps=490 q=-0.0 size=N/A time=00:14:14.22 bitrate=N/A speed=20.5x    frame=20759 fps=491 q=-0.0 size=N/A time=00:14:25.82 bitrate=N/A speed=20.5x    frame=21004 fps=491 q=-0.0 size=N/A time=00:14:36.04 bitrate=N/A speed=20.5x    frame=21263 fps=491 q=-0.0 size=N/A time=00:14:46.84 bitrate=N/A speed=20.5x    frame=21499 fps=491 q=-0.0 size=N/A time=00:14:56.68 bitrate=N/A speed=20.5x    frame=21763 fps=491 q=-0.0 size=N/A time=00:15:07.69 bitrate=N/A speed=20.5x    frame=22016 fps=491 q=-0.0 size=N/A time=00:15:18.25 bitrate=N/A speed=20.5x    frame=22263 fps=491 q=-0.0 size=N/A time=00:15:28.55 bitrate=N/A speed=20.5x    frame=22509 fps=490 q=-0.0 size=N/A time=00:15:38.81 bitrate=N/A speed=20.5x    frame=22762 fps=490 q=-0.0 size=N/A time=00:15:49.36 bitrate=N/A speed=20.5x    frame=23045 fps=491 q=-0.0 size=N/A time=00:16:01.16 bitrate=N/A speed=20.5x    frame=23317 fps=491 q=-0.0 size=N/A time=00:16:12.51 bitrate=N/A speed=20.5x    frame=23562 fps=491 q=-0.0 size=N/A time=00:16:22.73 bitrate=N/A speed=20.5x    frame=23847 fps=492 q=-0.0 size=N/A time=00:16:34.61 bitrate=N/A speed=20.5x    frame=24117 fps=492 q=-0.0 size=N/A time=00:16:45.87 bitrate=N/A speed=20.5x    frame=24368 fps=492 q=-0.0 size=N/A time=00:16:56.34 bitrate=N/A speed=20.5x    frame=24614 fps=492 q=-0.0 size=N/A time=00:17:06.60 bitrate=N/A speed=20.5x    frame=24833 fps=491 q=-0.0 size=N/A time=00:17:15.74 bitrate=N/A speed=20.5x    frame=25097 fps=492 q=-0.0 size=N/A time=00:17:26.75 bitrate=N/A speed=20.5x    frame=25367 fps=492 q=-0.0 size=N/A time=00:17:38.01 bitrate=N/A speed=20.5x    frame=25630 fps=492 q=-0.0 size=N/A time=00:17:48.98 bitrate=N/A speed=20.5x    frame=25881 fps=492 q=-0.0 size=N/A time=00:17:59.45 bitrate=N/A speed=20.5x    frame=26142 fps=492 q=-0.0 size=N/A time=00:18:10.33 bitrate=N/A speed=20.5x    frame=26398 fps=492 q=-0.0 size=N/A time=00:18:21.01 bitrate=N/A speed=20.5x    frame=26647 fps=492 q=-0.0 size=N/A time=00:18:31.40 bitrate=N/A speed=20.5x    frame=26917 fps=492 q=-0.0 size=N/A time=00:18:42.66 bitrate=N/A speed=20.5x    frame=27165 fps=492 q=-0.0 size=N/A time=00:18:53.00 bitrate=N/A speed=20.5x    frame=27444 fps=493 q=-0.0 size=N/A time=00:19:04.64 bitrate=N/A speed=20.6x    frame=27707 fps=493 q=-0.0 size=N/A time=00:19:15.61 bitrate=N/A speed=20.6x    frame=27984 fps=493 q=-0.0 size=N/A time=00:19:27.16 bitrate=N/A speed=20.6x    frame=28268 fps=494 q=-0.0 size=N/A time=00:19:39.01 bitrate=N/A speed=20.6x    frame=28534 fps=494 q=-0.0 size=N/A time=00:19:50.10 bitrate=N/A speed=20.6x    frame=28801 fps=494 q=-0.0 size=N/A time=00:20:01.24 bitrate=N/A speed=20.6x    frame=29069 fps=494 q=-0.0 size=N/A time=00:20:12.41 bitrate=N/A speed=20.6x    frame=29340 fps=495 q=-0.0 size=N/A time=00:20:23.72 bitrate=N/A speed=20.6x    frame=29597 fps=495 q=-0.0 size=N/A time=00:20:34.44 bitrate=N/A speed=20.6x    frame=29874 fps=495 q=-0.0 size=N/A time=00:20:45.99 bitrate=N/A speed=20.7x    frame=30105 fps=495 q=-0.0 size=N/A time=00:20:55.62 bitrate=N/A speed=20.6x    frame=30341 fps=494 q=-0.0 size=N/A time=00:21:05.47 bitrate=N/A speed=20.6x    frame=30586 fps=494 q=-0.0 size=N/A time=00:21:15.69 bitrate=N/A speed=20.6x    frame=30861 fps=495 q=-0.0 size=N/A time=00:21:27.16 bitrate=N/A speed=20.6x    frame=31135 fps=495 q=-0.0 size=N/A time=00:21:38.58 bitrate=N/A speed=20.6x    frame=31376 fps=495 q=-0.0 size=N/A time=00:21:48.64 bitrate=N/A speed=20.6x    frame=31638 fps=495 q=-0.0 size=N/A time=00:21:59.56 bitrate=N/A speed=20.6x    frame=31898 fps=495 q=-0.0 size=N/A time=00:22:10.41 bitrate=N/A speed=20.6x    frame=32154 fps=495 q=-0.0 size=N/A time=00:22:21.08 bitrate=N/A speed=20.6x    frame=32408 fps=495 q=-0.0 size=N/A time=00:22:31.68 bitrate=N/A speed=20.6x    frame=32618 fps=494 q=-0.0 size=N/A time=00:22:40.44 bitrate=N/A speed=20.6x    frame=32875 fps=494 q=-0.0 size=N/A time=00:22:51.16 bitrate=N/A speed=20.6x    frame=33146 fps=494 q=-0.0 size=N/A time=00:23:02.46 bitrate=N/A speed=20.6x    frame=33381 fps=494 q=-0.0 size=N/A time=00:23:12.26 bitrate=N/A speed=20.6x    frame=33574 fps=493 q=-0.0 size=N/A time=00:23:20.31 bitrate=N/A speed=20.6x    frame=33823 fps=493 q=-0.0 size=N/A time=00:23:30.70 bitrate=N/A speed=20.6x    frame=34074 fps=493 q=-0.0 size=N/A time=00:23:41.16 bitrate=N/A speed=20.6x    [Parsed_psnr_10 @ 000001edaf143e40] PSNR y:49.495229 u:51.048794 v:50.550168 average:49.886076 min:41.091181 max:inf
[out#0/null @ 000001eda1fa6540] video:14697KiB audio:267508KiB subtitle:0KiB other streams:0KiB global headers:0KiB muxing overhead: unknown
frame=34204 fps=493 q=-0.0 Lsize=N/A time=00:23:46.59 bitrate=N/A speed=20.6x    
